HIERARCHY
ROOT Hips
{
	OFFSET 0.000000 0.000000 0.000000
	CHANNELS 6 Xposition Yposition Zposition Zrotation Yrotation Xrotation 
	JOINT LeftUpLeg_virtual
	{
		OFFSET 0.000000 0.000000 0.000000
		CHANNELS 3 Zrotation Yrotation Xrotation
		JOINT LeftUpLeg
		{
			OFFSET 10.205400 -3.823500 0.155100
			CHANNELS 3 Zrotation Yrotation Xrotation
			JOINT LeftLeg
			{
				OFFSET 0.708757 -12.982077 0.567790
				CHANNELS 3 Zrotation Yrotation Xrotation
				JOINT LeftFoot
				{
					OFFSET -0.708756 -10.717838 -2.184338
					CHANNELS 3 Zrotation Yrotation Xrotation
					JOINT LeftToeBase
					{
						OFFSET 0.108149 -7.191104 7.560241
						CHANNELS 3 Zrotation Yrotation Xrotation
						End Site
						{
							OFFSET 0.000000 0.000000 0.000000
						}
					}
				}
			}
		}
	}
	JOINT RightUpLeg_virtual
	{
		OFFSET 0.000000 0.000000 0.000000
		CHANNELS 3 Zrotation Yrotation Xrotation
		JOINT RightUpLeg
		{
			OFFSET -10.205400 -3.823500 0.005500
			CHANNELS 3 Zrotation Yrotation Xrotation
			JOINT RightLeg
			{
				OFFSET -0.708756 -12.982134 0.610632
				CHANNELS 3 Zrotation Yrotation Xrotation
				JOINT RightFoot
				{
					OFFSET 0.708754 -10.717769 -1.945823
					CHANNELS 3 Zrotation Yrotation Xrotation
					JOINT RightToeBase
					{
						OFFSET -0.108140 -7.191069 7.372968
						CHANNELS 3 Zrotation Yrotation Xrotation
						End Site
						{
							OFFSET 0.000000 0.000000 0.000000
						}
					}
				}
			}
		}
	}
	JOINT Spine_virtual
	{
		OFFSET 0.000000 0.000000 0.000000
		CHANNELS 3 Zrotation Yrotation Xrotation
		JOINT Spine
		{
			OFFSET 0.000000 6.876099 0.125700
			CHANNELS 3 Zrotation Yrotation Xrotation
			JOINT Spine1
			{
				OFFSET 0.000000 8.022060 0.146608
				CHANNELS 3 Zrotation Yrotation Xrotation
				JOINT Spine2
				{
					OFFSET 0.000000 9.168068 0.167552
					CHANNELS 3 Zrotation Yrotation Xrotation
					JOINT Neck_virtual
					{
						OFFSET 0.000000 0.000000 0.000000
						CHANNELS 3 Zrotation Yrotation Xrotation
						JOINT Neck
						{
							OFFSET 0.000000 10.314075 0.188496
							CHANNELS 3 Zrotation Yrotation Xrotation
							JOINT Head
							{
								OFFSET 0.000000 7.643700 -2.377400
								CHANNELS 3 Zrotation Yrotation Xrotation
								End Site
								{
									OFFSET 0.000000 0.000000 0.000000
								}
							}
						}
					}
					JOINT LeftShoulder_virtual
					{
						OFFSET 0.000000 0.000000 0.000000
						CHANNELS 3 Zrotation Yrotation Xrotation
						JOINT LeftShoulder
						{
							OFFSET 4.392200 8.824978 0.174984
							CHANNELS 3 Zrotation Yrotation Xrotation
							JOINT LeftArm
							{
								OFFSET 8.771219 -2.981674 -0.026999
								CHANNELS 3 Zrotation Yrotation Xrotation
								JOINT LeftForeArm
								{
									OFFSET 8.512804 0.000000 -0.000000
									CHANNELS 3 Zrotation Yrotation Xrotation
									JOINT LeftHand
									{
										OFFSET 18.484802 0.000000 -0.000000
										CHANNELS 3 Zrotation Yrotation Xrotation
										End Site
										{
											OFFSET 0.000000 0.000000 0.000000
										}
									}
								}
							}
						}
					}
					JOINT RightShoulder_virtual
					{
						OFFSET 0.000000 0.000000 0.000000
						CHANNELS 3 Zrotation Yrotation Xrotation
						JOINT RightShoulder
						{
							OFFSET -4.392200 8.824993 0.141379
							CHANNELS 3 Zrotation Yrotation Xrotation
							JOINT RightArm
							{
								OFFSET -8.771282 -2.981682 -0.094208
								CHANNELS 3 Zrotation Yrotation Xrotation
								JOINT RightForeArm
								{
									OFFSET -8.494598 0.000000 0.000000
									CHANNELS 3 Zrotation Yrotation Xrotation
									JOINT RightHand
									{
										OFFSET -18.483803 0.000000 0.000001
										CHANNELS 3 Zrotation Yrotation Xrotation
										End Site
										{
											OFFSET 0.000000 0.000000 0.000000
										}
									}
								}
							}
						}
					}
				}
			}
		}
	}
}
MOTION
Frames: 13
Frame Time: 0.033333
0.096578 36.065750 20.997532 -179.915693 4.074804 -179.868387 -3.366955 -2.802512 10.450814 -11.167930 1.804088 -14.511386 16.431748 8.138512 20.551573 0.509968 -1.039124 4.114645 0.000000 0.000000 0.000000 0.875884 -0.813678 9.048483 -0.277580 4.228822 -11.911999 -7.810875 1.754370 14.857588 6.793284 3.166187 6.508285 0.000000 0.000000 0.000000 0.620554 0.878378 -1.353796 -2.887731 1.367982 -6.713337 0.665026 -3.474293 3.089705 -0.018120 -0.005727 0.011381 0.400411 -1.833708 5.567772 -1.231744 3.941052 11.231440 0.000000 0.000000 0.000000 1.911349 -1.021804 2.726250 -7.450905 -1.083343 -5.481531 -7.983068 8.900782 -30.439370 -0.950707 -39.562648 -0.655894 0.000000 0.000000 0.000000 -1.681278 -0.190702 2.105719 19.129500 -4.081686 -14.320394 9.445147 -5.597271 -48.259791 1.746611 25.141636 1.378495 0.000000 0.000000 0.000000 
0.095974 36.062511 21.004126 -179.910926 4.080482 -179.945350 -3.493451 -2.758787 10.542015 -11.148314 2.103342 -14.462436 16.430718 8.473888 20.602219 0.626071 -0.966638 4.267418 0.000000 0.000000 0.000000 0.870949 -0.877245 9.099985 -0.392948 4.563115 -11.900937 -7.832804 1.727149 14.682062 6.771972 3.136960 6.719641 0.000000 0.000000 0.000000 0.586162 0.896236 -1.254557 -2.856812 1.358554 -6.722966 0.660337 -3.452213 3.081496 -0.000039 -0.005301 0.009731 0.365879 -1.809073 5.525895 -1.235974 3.850436 11.294249 0.000000 0.000000 0.000000 1.881405 -1.032672 2.650018 -7.473396 -1.117355 -5.463341 -7.735343 9.038048 -30.585782 -0.976270 -39.493612 -0.609051 0.000000 0.000000 0.000000 -1.728156 -0.206603 2.072336 19.294403 -4.161709 -14.337516 9.496535 -5.874279 -48.453072 1.706766 24.919462 1.422008 0.000000 0.000000 0.000000 
0.100963 36.062691 20.994858 -179.916731 4.228628 -179.897798 -3.531179 -2.724603 10.548654 -11.121605 2.123419 -14.498863 16.410428 8.450695 20.594489 0.678377 -0.966022 4.220712 0.000000 0.000000 0.000000 0.863090 -0.836729 9.102467 -0.362366 4.385284 -11.929929 -7.850058 1.891639 14.610157 6.888066 3.112263 6.744139 0.000000 0.000000 0.000000 0.526178 0.920628 -1.242459 -2.803630 1.361488 -6.784762 0.632784 -3.427030 3.071364 0.005725 -0.013416 0.040524 0.304651 -1.721615 5.488171 -1.257478 3.715345 11.381225 0.000000 0.000000 0.000000 1.831746 -0.936178 2.584170 -7.431656 -1.123205 -5.474554 -7.532976 9.153376 -30.703029 -0.898979 -39.579686 -0.597885 0.000000 0.000000 0.000000 -1.772873 -0.148456 2.028330 19.503230 -4.131342 -14.300581 9.521530 -6.329737 -48.520537 1.683751 24.825782 1.480427 0.000000 0.000000 0.000000 
0.117493 36.063221 20.968634 -179.883537 4.331494 -179.862363 -3.548295 -2.642307 10.545403 -11.035961 2.042156 -14.520646 16.411567 8.387385 20.750340 0.731063 -0.960601 4.125303 0.000000 0.000000 0.000000 0.874929 -0.744334 9.142401 -0.315141 4.281345 -11.877912 -7.863488 1.694785 14.400168 7.087955 3.091082 6.820717 0.000000 0.000000 0.000000 0.490780 0.962201 -1.244762 -2.691314 1.407362 -6.822354 0.608358 -3.374496 3.030794 0.028958 -0.009725 -0.012898 0.228961 -1.594819 5.504742 -1.285272 3.546760 11.463811 0.000000 0.000000 0.000000 1.763762 -0.886722 2.617148 -7.379288 -1.200344 -5.490194 -7.316056 9.313143 -30.792842 -0.784454 -39.798139 -0.560539 0.000000 0.000000 0.000000 -1.850314 -0.101579 2.071576 19.661345 -4.135919 -14.211107 9.488193 -6.742751 -48.665883 1.614058 24.824869 1.550163 0.000000 0.000000 0.000000 
0.135341 36.063984 20.927607 -179.938096 4.439225 -179.922073 -3.647792 -2.615525 10.569936 -10.921145 1.954998 -14.439372 16.462687 8.426030 20.904670 0.764664 -0.968535 3.993387 0.000000 0.000000 0.000000 0.825266 -0.779907 9.177487 -0.294187 4.079252 -11.816069 -7.874676 1.681062 14.381359 7.315570 3.084580 6.818691 0.000000 0.000000 0.000000 0.412762 0.960736 -1.162830 -2.599177 1.470842 -6.815081 0.546602 -3.328052 3.021307 0.002493 -0.023319 0.018158 0.198696 -1.598073 5.432468 -1.289635 3.379538 11.589936 0.000000 0.000000 0.000000 1.731165 -0.809465 2.491010 -7.437437 -1.270055 -5.339312 -7.105259 9.578710 -30.872558 -0.672030 -40.093552 -0.481807 0.000000 0.000000 0.000000 -1.885173 -0.008959 2.054377 19.770397 -4.055138 -14.123797 9.298228 -6.995278 -48.675821 1.567378 24.874236 1.638038 0.000000 0.000000 0.000000 
0.151733 36.062675 20.885126 -179.912374 4.480773 -179.873360 -3.661804 -2.697362 10.545594 -10.839305 1.864109 -14.373568 16.456840 8.385445 21.024635 0.837659 -0.891757 3.865658 0.000000 0.000000 0.000000 0.845819 -0.800023 9.162500 -0.269080 3.919652 -11.754059 -7.922855 1.567442 14.296078 7.555636 3.048346 6.812424 0.000000 0.000000 0.000000 0.487174 0.921596 -1.192640 -2.560229 1.583097 -6.842476 0.457998 -3.250904 3.044195 -0.021864 0.002650 0.027967 0.187243 -1.682242 5.410114 -1.299769 3.189477 11.704781 0.000000 0.000000 0.000000 1.728556 -0.760624 2.503154 -7.514157 -1.430930 -5.330354 -7.087235 9.891776 -30.929866 -0.597424 -40.451348 -0.326554 0.000000 0.000000 0.000000 -1.879562 0.038544 2.013666 19.794440 -4.005999 -13.963820 9.131313 -7.191039 -48.646506 1.554903 24.983794 1.742728 0.000000 0.000000 0.000000 
0.178343 36.060543 20.843887 -179.948341 4.540853 -179.924053 -3.701949 -2.759963 10.556142 -10.795877 1.862625 -14.232741 16.485147 8.415935 21.081696 0.796443 -0.881134 3.770849 0.000000 0.000000 0.000000 0.855126 -0.946768 9.123725 -0.251920 3.748275 -11.720308 -7.932203 1.613872 14.485023 7.807094 3.048807 6.723919 0.000000 0.000000 0.000000 0.410711 0.787957 -1.159573 -2.402503 1.683503 -6.852102 0.446668 -3.222738 3.064251 0.002205 -0.021905 0.017808 0.096699 -1.492039 5.454322 -1.297085 3.021543 11.877136 0.000000 0.000000 0.000000 1.595288 -0.641533 2.533257 -7.670880 -1.482267 -5.267356 -7.203628 10.315559 -31.163394 -0.615451 -40.779771 -0.078405 0.000000 0.000000 0.000000 -2.035863 0.161028 2.103703 19.783776 -3.932882 -13.756810 8.949128 -7.347865 -48.727888 1.566654 25.193798 1.795549 0.000000 0.000000 0.000000 
0.205407 36.061348 20.804777 -179.921540 4.538826 -179.816328 -3.674319 -2.927791 10.478610 -10.801190 1.949151 -14.151671 16.559106 8.459673 21.112984 0.678285 -0.888560 3.744928 0.000000 0.000000 0.000000 0.901146 -1.010894 9.019234 -0.232358 3.579689 -11.670855 -7.947661 1.461794 14.456010 8.076109 3.013470 6.704364 0.000000 0.000000 0.000000 0.437531 0.690336 -1.306320 -2.312995 1.842241 -6.923203 0.399720 -3.157123 3.106342 -0.001086 0.003746 0.008087 0.036988 -1.452546 5.579777 -1.332045 2.848806 12.086436 0.000000 0.000000 0.000000 1.519469 -0.661332 2.648488 -7.765053 -1.700167 -5.095535 -7.429179 10.924336 -31.528980 -0.600539 -41.115331 0.149252 0.000000 0.000000 0.000000 -2.094447 0.159544 2.163342 19.761132 -3.949305 -13.399631 8.992242 -7.548940 -48.777687 1.587529 25.454670 1.795035 0.000000 0.000000 0.000000 
0.240098 36.069046 20.786568 -179.856339 4.531775 -179.878373 -3.574917 -3.029829 10.468997 -10.768513 2.011857 -13.976579 16.709870 8.514264 21.107916 0.467846 -0.932473 3.770759 0.000000 0.000000 0.000000 1.014559 -1.216146 8.939786 -0.196171 3.236574 -11.581026 -7.932499 1.499745 14.559749 8.309153 3.050831 6.736267 0.000000 0.000000 0.000000 0.481466 0.563014 -1.370750 -2.180270 1.981780 -6.925747 0.368043 -3.139525 3.182309 0.002826 -0.010040 0.027443 -0.031032 -1.350532 5.628326 -1.369384 2.727518 12.336870 0.000000 0.000000 0.000000 1.454825 -0.648461 2.696710 -7.817976 -1.843367 -4.957823 -7.752640 11.568361 -31.874908 -0.715374 -41.478929 0.499489 0.000000 0.000000 0.000000 -2.160569 0.158268 2.185338 19.728195 -3.897198 -13.090327 9.225955 -7.686756 -48.885136 1.619089 25.815269 1.744515 0.000000 0.000000 0.000000 
0.272612 36.083443 20.776657 -179.878018 4.553089 -179.910557 -3.643983 -3.087315 10.431698 -10.672863 2.012634 -13.851253 16.738109 8.629834 21.142407 0.323075 -0.889164 3.801147 0.000000 0.000000 0.000000 1.038642 -1.268303 8.825636 -0.234884 3.062175 -11.488715 -7.960637 1.245469 14.619038 8.568173 3.081309 6.775818 0.000000 0.000000 0.000000 0.437459 0.403565 -1.526920 -2.035421 2.116134 -6.934103 0.335053 -3.153347 3.265866 -0.057783 -0.045172 0.008193 -0.088254 -1.299577 5.812035 -1.388546 2.666984 12.607678 0.000000 0.000000 0.000000 1.403518 -0.544143 2.775519 -7.782356 -1.899430 -4.617485 -8.449979 12.149891 -31.904562 -0.637891 -41.935900 0.642322 0.000000 0.000000 0.000000 -2.205527 0.273551 2.354147 19.693923 -3.655955 -12.623719 9.763113 -7.726645 -48.857651 1.559778 26.467543 1.588307 0.000000 0.000000 0.000000 
0.297467 36.099159 20.778851 -179.861625 4.463818 -179.919805 -3.621913 -3.189348 10.366595 -10.597096 2.057516 -13.766972 16.830826 8.709796 21.157127 0.080105 -0.925486 3.887551 0.000000 0.000000 0.000000 1.104472 -1.364697 8.687980 -0.314040 2.958893 -11.427972 -7.973986 0.936318 14.768641 8.761322 3.124559 6.799665 0.000000 0.000000 0.000000 0.427741 0.323544 -1.749455 -1.807662 2.304556 -6.946709 0.209878 -3.166540 3.373326 -0.002769 -0.046435 -0.001712 -0.158904 -1.293468 5.983401 -1.470292 2.635031 12.869662 0.000000 0.000000 0.000000 1.289063 -0.549657 2.971465 -7.800918 -2.098961 -4.479806 -9.474941 12.457925 -31.329057 -0.943561 -42.313746 1.165238 0.000000 0.000000 0.000000 -2.328609 0.233261 2.445544 19.660573 -3.407456 -11.974593 10.521474 -7.486571 -48.293334 1.390324 27.159156 1.316342 0.000000 0.000000 0.000000 
0.305896 36.109570 20.790758 179.977015 4.324756 -179.877348 -3.848911 -3.321912 10.283622 -10.459483 2.104008 -13.801168 16.768734 8.826156 21.214077 -0.029437 -0.860404 3.850751 0.000000 0.000000 0.000000 1.011391 -1.409780 8.545446 -0.352396 2.700419 -11.409187 -7.922972 0.846802 14.906936 8.935072 3.168304 6.789554 0.000000 0.000000 0.000000 0.267564 0.282210 -2.040832 -1.572066 2.567152 -6.959279 0.050491 -3.145584 3.541205 0.004489 0.002714 0.025983 -0.268089 -1.324593 6.144056 -1.623288 2.622382 13.068525 0.000000 0.000000 0.000000 1.174482 -0.668643 3.171009 -7.867634 -2.488376 -4.208024 -10.986238 12.374285 -29.663945 -1.137585 -42.705932 1.568241 0.000000 0.000000 0.000000 -2.452630 0.104117 2.534729 19.703991 -3.063542 -11.204414 11.707048 -7.055019 -46.786202 1.148836 27.957091 1.025185 0.000000 0.000000 0.000000 
0.302130 36.104595 20.805849 179.993434 4.090128 -179.900325 -3.793733 -3.411620 10.251758 -10.453353 2.306366 -13.851917 16.756314 8.855352 21.328398 -0.247802 -0.938181 3.843541 0.000000 0.000000 0.000000 1.070257 -1.493615 8.455681 -0.339330 2.193827 -11.404494 -7.888893 1.131740 15.149476 8.952002 3.237661 6.633855 0.000000 0.000000 0.000000 0.231501 0.067327 -2.246688 -1.173673 2.825952 -6.971329 -0.113080 -3.186367 3.677919 0.004534 0.007668 0.000527 -0.416237 -1.366202 6.398116 -1.836599 2.647745 13.214966 0.000000 0.000000 0.000000 0.984504 -0.676663 3.384615 -8.122444 -2.865186 -3.720529 -12.870097 11.678888 -26.417674 -1.216714 -43.143720 1.870143 0.000000 0.000000 0.000000 -2.628150 0.104711 2.772788 19.875688 -2.336104 -10.226882 13.277275 -6.452626 -43.953329 0.858409 28.610759 0.708841 0.000000 0.000000 0.000000 
